<?xml version="1.0" standalone="yes"?>

<svg version="1.1" viewBox="0.0 0.0 383.0 383.0" fill="none" stroke="none" stroke-linecap="square" stroke-miterlimit="10" xmlns="http://www.w3.org/2000/svg" xmlns:xlink="http://www.w3.org/1999/xlink"><clipPath id="p.0"><path d="m0 0l383.0 0l0 383.0l-383.0 0l0 -383.0z" clip-rule="nonzero"></path></clipPath><g clip-path="url(#p.0)"><path fill="#000000" fill-opacity="0.0" d="m0 0l383.91864 0l0 383.91864l-383.91864 0z" fill-rule="nonzero"></path><path fill="#000000" fill-opacity="0.0" d="m20.204725 191.95932l0 0c0 -94.87991 76.91536 -171.79527 171.79527 -171.79527l0 0c45.562943 0 89.259735 18.09981 121.4776 50.317673c32.217865 32.217865 50.317688 75.914665 50.317688 121.47761l0 0c0 94.87991 -76.915375 171.79529 -171.79529 171.79529l0 0c-94.87991 0 -171.79527 -76.915375 -171.79527 -171.79529z" fill-rule="nonzero"></path><path stroke="#ffffff" stroke-width="24.0" stroke-linejoin="round" stroke-linecap="butt" d="m20.204725 191.95932l0 0c0 -94.87991 76.91536 -171.79527 171.79527 -171.79527l0 0c45.562943 0 89.259735 18.09981 121.4776 50.317673c32.217865 32.217865 50.317688 75.914665 50.317688 121.47761l0 0c0 94.87991 -76.915375 171.79529 -171.79529 171.79529l0 0c-94.87991 0 -171.79527 -76.915375 -171.79527 -171.79529z" fill-rule="nonzero"></path><path fill="#ffffff" d="m66.77767 173.87885l107.14185 0l0 -107.14186l36.16095 0l0 107.14186l107.141846 0l0 36.16095l-107.141846 0l0 107.141846l-36.16095 0l0 -107.141846l-107.14185 0z" fill-rule="nonzero"></path></g></svg>

